<svg xmlns="http://www.w3.org/2000/svg" width="24" height="25" viewBox="0 0 24 25" fill="none"><path d="M16.9119 17.6302C17.8196 19.1622 18.7171 20.6768 19.614 22.1898C15.6426 25.1471 9.46385 25.5045 4.88986 22.0989C-0.373804 18.1767 -1.23893 11.4842 1.57915 6.66671C4.82035 1.12554 10.8857 -0.0999199 14.7909 0.798666C14.6853 1.02184 12.3464 5.74154 12.3464 5.74154C12.3464 5.74154 12.1615 5.75336 12.0569 5.75533C10.9026 5.80291 10.0429 6.06415 9.12138 6.52756C8.11038 7.04068 7.24399 7.78685 6.59793 8.70085C5.95187 9.61485 5.5458 10.6688 5.41522 11.7707C5.27896 12.8882 5.43783 14.021 5.8768 15.0622C6.24795 15.9424 6.77297 16.7241 7.47682 17.3841C8.55654 18.3976 9.84142 19.0251 11.3308 19.2328C12.7412 19.4297 14.0976 19.2348 15.3686 18.6135C15.8454 18.3808 16.2509 18.1238 16.725 17.7714C16.7854 17.7333 16.8391 17.6851 16.9119 17.6302Z" fill="#FF492C"></path><path d="M16.9207 4.19445C16.6903 3.97391 16.4767 3.77043 16.2641 3.56564C16.1372 3.44355 16.0151 3.31654 15.8852 3.19741C15.8386 3.15442 15.784 3.09567 15.784 3.09567C15.784 3.09567 15.8282 3.00443 15.8471 2.96702C16.0957 2.48163 16.4854 2.12685 16.9477 1.84461C17.4589 1.53013 18.0544 1.37013 18.6591 1.38481C19.4328 1.39958 20.1521 1.58698 20.7591 2.09174C21.2072 2.46423 21.437 2.93683 21.4775 3.50099C21.545 4.45274 21.1401 5.18165 20.336 5.69034C19.8636 5.98965 19.3541 6.22103 18.8433 6.49507C18.5616 6.64636 18.3206 6.77928 18.0453 7.05299C17.803 7.32769 17.7912 7.58663 17.7912 7.58663L21.4512 7.58204V9.16752H15.8018C15.8018 9.16752 15.8018 9.05922 15.8018 9.01426C15.7802 8.23513 15.8737 7.50196 16.2405 6.79438C16.5779 6.14522 17.1022 5.67 17.7322 5.30407C18.2174 5.02215 18.7282 4.78224 19.2145 4.50164C19.5144 4.32868 19.7263 4.07499 19.7246 3.70709C19.7246 3.39137 19.4884 3.11077 19.151 3.02314C18.3554 2.81441 17.5456 3.14753 17.1245 3.85576C17.0631 3.95914 17.0003 4.06186 16.9207 4.19445Z" fill="#FF492C"></path><path d="M24 15.945L20.9157 10.7642H14.8122L11.708 15.9985H17.8564L20.8904 21.1547L24 15.945Z" fill="#FF492C"></path></svg>